<?xml version="1.0" standalone="no"?>
<!DOCTYPE svg PUBLIC "-//W3C//DTD SVG 20010904//EN"
 "http://www.w3.org/TR/2001/REC-SVG-20010904/DTD/svg10.dtd">
<svg version="1.0" xmlns="http://www.w3.org/2000/svg"
 width="224.000000pt" height="224.000000pt" viewBox="0 0 224.000000 224.000000"
 preserveAspectRatio="xMidYMid meet">

<g transform="translate(0.000000,224.000000) scale(0.100000,-0.100000)"
fill="#000000" stroke="none">
<path d="M1040 2200 l0 -40 -40 0 -40 0 0 -80 0 -80 -80 0 -80 0 0 -40 0 -40
-80 0 -80 0 0 -40 0 -40 -80 0 -80 0 0 40 0 40 -80 0 -80 0 0 -40 0 -40 -40 0
-40 0 0 -80 0 -80 40 0 40 0 0 -120 0 -120 -40 0 -40 0 0 -80 0 -80 -80 0 -80
0 0 -40 0 -40 -40 0 -40 0 0 -80 0 -80 40 0 40 0 0 -40 0 -40 80 0 80 0 0 -80
0 -80 40 0 40 0 0 -80 0 -80 40 0 40 0 0 -80 0 -80 -40 0 -40 0 0 -80 0 -80
40 0 40 0 0 -40 0 -40 80 0 80 0 0 40 0 40 120 0 120 0 0 -40 0 -40 80 0 80 0
0 -80 0 -80 40 0 40 0 0 -40 0 -40 80 0 80 0 0 40 0 40 40 0 40 0 0 80 0 80
80 0 80 0 0 40 0 40 120 0 120 0 0 -40 0 -40 80 0 80 0 0 40 0 40 40 0 40 0 0
80 0 80 -40 0 -40 0 0 80 0 80 40 0 40 0 0 80 0 80 40 0 40 0 0 80 0 80 80 0
80 0 0 40 0 40 40 0 40 0 0 80 0 80 -40 0 -40 0 0 40 0 40 -80 0 -80 0 0 80 0
80 -40 0 -40 0 0 120 0 120 40 0 40 0 0 80 0 80 -40 0 -40 0 0 40 0 40 -80 0
-80 0 0 -40 0 -40 -80 0 -80 0 0 40 0 40 -80 0 -80 0 0 40 0 40 -80 0 -80 0 0
80 0 80 -40 0 -40 0 0 40 0 40 -80 0 -80 0 0 -40z m80 -120 l0 -80 -40 0 -40
0 0 80 0 80 40 0 40 0 0 -80z m320 -200 l0 -40 80 0 80 0 0 -80 0 -80 40 0 40
0 0 -120 0 -120 40 0 40 0 0 -120 0 -120 -40 0 -40 0 0 -80 0 -80 40 0 40 0 0
-40 0 -40 -40 0 -40 0 0 40 0 40 -40 0 -40 0 0 -80 0 -80 40 0 40 0 0 -40 0
-40 -40 0 -40 0 0 40 0 40 -40 0 -40 0 0 -40 0 -40 -40 0 -40 0 0 -40 0 -40
40 0 40 0 0 -40 0 -40 -40 0 -40 0 0 40 0 40 -40 0 -40 0 0 40 0 40 40 0 40 0
0 40 0 40 40 0 40 0 0 40 0 40 -40 0 -40 0 0 80 0 80 -40 0 -40 0 0 40 0 40
-40 0 -40 0 0 40 0 40 -40 0 -40 0 0 -80 0 -80 -40 0 -40 0 0 -40 0 -40 -80 0
-80 0 0 -40 0 -40 40 0 40 0 0 -80 0 -80 80 0 80 0 0 -40 0 -40 40 0 40 0 0
-40 0 -40 -80 0 -80 0 0 40 0 40 -40 0 -40 0 0 -80 0 -80 -40 0 -40 0 0 80 0
80 -40 0 -40 0 0 -40 0 -40 -40 0 -40 0 0 -40 0 -40 -40 0 -40 0 0 40 0 40 40
0 40 0 0 40 0 40 -80 0 -80 0 0 -40 0 -40 -40 0 -40 0 0 40 0 40 -40 0 -40 0
0 40 0 40 -40 0 -40 0 0 80 0 80 -40 0 -40 0 0 240 0 240 40 0 40 0 0 80 0 80
40 0 40 0 0 40 0 40 40 0 40 0 0 40 0 40 40 0 40 0 0 40 0 40 80 0 80 0 0 40
0 40 320 0 320 0 0 -40z m-960 -80 l0 -40 -40 0 -40 0 0 40 0 40 40 0 40 0 0
-40z m1360 0 l0 -40 -40 0 -40 0 0 40 0 40 40 0 40 0 0 -40z m-1600 -640 l0
-40 -80 0 -80 0 0 40 0 40 80 0 80 0 0 -40z m1920 0 l0 -40 -80 0 -80 0 0 40
0 40 80 0 80 0 0 -40z m-1680 -720 l0 -40 -40 0 -40 0 0 40 0 40 40 0 40 0 0
-40z m1360 0 l0 -40 -40 0 -40 0 0 40 0 40 40 0 40 0 0 -40z m-640 -280 l0
-80 -40 0 -40 0 0 80 0 80 40 0 40 0 0 -80z"/>
<path d="M1440 1480 l0 -40 40 0 40 0 0 40 0 40 -40 0 -40 0 0 -40z"/>
<path d="M1600 1400 l0 -40 40 0 40 0 0 40 0 40 -40 0 -40 0 0 -40z"/>
<path d="M960 1320 l0 -40 -40 0 -40 0 0 -120 0 -120 40 0 40 0 0 120 0 120
120 0 120 0 0 40 0 40 -120 0 -120 0 0 -40z"/>
<path d="M1600 1240 l0 -40 40 0 40 0 0 40 0 40 -40 0 -40 0 0 -40z"/>
<path d="M1440 1160 l0 -40 40 0 40 0 0 -40 0 -40 40 0 40 0 0 40 0 40 -40 0
-40 0 0 40 0 40 -40 0 -40 0 0 -40z"/>
<path d="M720 840 l0 -40 40 0 40 0 0 -40 0 -40 40 0 40 0 0 40 0 40 40 0 40
0 0 -40 0 -40 40 0 40 0 0 40 0 40 -40 0 -40 0 0 40 0 40 -40 0 -40 0 0 -40 0
-40 -40 0 -40 0 0 40 0 40 -40 0 -40 0 0 -40z"/>
<path d="M560 760 l0 -40 40 0 40 0 0 40 0 40 -40 0 -40 0 0 -40z"/>
</g>
</svg>
